<svg width="26" height="26" viewBox="0 0 26 26" fill="none" xmlns="http://www.w3.org/2000/svg">
<path d="M13 2.16663C11.2761 2.16663 9.62279 2.85145 8.40381 4.07043C7.18482 5.28942 6.5 6.94272 6.5 8.66663C6.5 10.2039 6.82717 11.2103 7.71875 12.3229L13 18.4166L18.2813 12.3229C19.1728 11.2103 19.5 10.2039 19.5 8.66663C19.5 6.94272 18.8152 5.28942 17.5962 4.07043C16.3772 2.85145 14.7239 2.16663 13 2.16663Z" stroke="black" stroke-width="2" stroke-linecap="round" stroke-linejoin="round"/>
<path d="M5.41666 16.4049C3.41141 17.1925 2.16666 18.2877 2.16666 19.5C2.16666 21.8942 7.01674 23.8333 13 23.8333C18.9832 23.8333 23.8333 21.8942 23.8333 19.5C23.8333 18.2877 22.5886 17.1925 20.5833 16.4049" stroke="black" stroke-width="2" stroke-linecap="round" stroke-linejoin="round"/>
<path d="M13 9.74992C13.5983 9.74992 14.0833 9.26489 14.0833 8.66659C14.0833 8.06828 13.5983 7.58325 13 7.58325C12.4017 7.58325 11.9167 8.06828 11.9167 8.66659C11.9167 9.26489 12.4017 9.74992 13 9.74992Z" stroke="black" stroke-width="2" stroke-linecap="round" stroke-linejoin="round"/>
</svg>
