<svg width="44" height="44" viewBox="0 0 44 44" fill="none" xmlns="http://www.w3.org/2000/svg">
<mask id="mask0_267_34" style="mask-type:luminance" maskUnits="userSpaceOnUse" x="4" y="3" width="36" height="38">
<path d="M20.1667 23.8334L28.8567 10.0834C29.3883 10.395 29.9017 10.725 30.3783 11.0917L34.9983 9.24005C35.2917 9.13005 35.7867 9.18505 35.9333 9.47838L39.7283 16.0417C39.9117 16.3534 39.8383 16.8667 39.6 17.0867L35.6217 20.1667C35.7133 20.7717 35.75 21.3767 35.75 22L20.1667 23.8334Z" fill="white"/>
<path d="M19.4956 21.329L35.7485 21.9797C35.7444 22.596 35.7153 23.2056 35.6361 23.8017L39.5496 26.8769C39.7916 27.076 39.9914 27.5321 39.8107 27.8058L36.0242 34.374C35.846 34.6887 35.3648 34.8818 35.0551 34.7854L30.3985 32.8801C29.9204 33.262 29.4148 33.5962 28.875 33.9079L19.4956 21.329Z" fill="white"/>
<path d="M21.329 19.4957L28.8918 33.8964C28.3561 34.201 27.8136 34.4806 27.2577 34.7101L26.5513 39.6369C26.4999 39.946 26.2048 40.3471 25.8774 40.3275L18.2959 40.3324C17.9343 40.3353 17.5264 40.0152 17.4551 39.6988L16.7769 34.7134C16.2071 34.4903 15.6648 34.2196 15.125 33.9079L21.329 19.4957Z" fill="white"/>
<path d="M23.8333 20.1667L15.1433 33.9167C14.6117 33.605 14.0983 33.275 13.6217 32.9083L9.00168 34.76C8.70834 34.87 8.21334 34.815 8.06668 34.5217L4.27168 27.9583C4.08834 27.6467 4.16168 27.1333 4.40001 26.9133L8.37834 23.8333C8.28668 23.2283 8.25001 22.6233 8.25001 22L23.8333 20.1667Z" fill="white"/>
<path d="M24.5044 22.6711L8.25153 22.0203C8.25561 21.404 8.28473 20.7945 8.36394 20.1983L4.45035 17.1231C4.20842 16.9241 4.00855 16.4679 4.18926 16.1942L7.97577 9.62601C8.15401 9.31141 8.63524 9.11825 8.94493 9.21465L13.6015 11.12C14.0796 10.7381 14.5852 10.4038 15.125 10.0922L24.5044 22.6711Z" fill="white"/>
<path d="M22.6711 24.5044L15.1082 10.1036C15.644 9.79903 16.1864 9.51947 16.7423 9.29L17.4487 4.36313C17.5001 4.0541 17.7952 3.65291 18.1226 3.67256L25.7041 3.66766C26.0657 3.66473 26.4736 3.9849 26.5449 4.3013L27.2231 9.28664C27.7929 9.50976 28.3352 9.7805 28.875 10.0922L22.6711 24.5044Z" fill="white"/>
<path d="M22 28.4167C25.5438 28.4167 28.4167 25.5439 28.4167 22C28.4167 18.4562 25.5438 15.5834 22 15.5834C18.4562 15.5834 15.5833 18.4562 15.5833 22C15.5833 25.5439 18.4562 28.4167 22 28.4167Z" fill="black"/>
</mask>
<g mask="url(#mask0_267_34)">
<path d="M44 0H0V44H44V0Z" fill="black"/>
</g>
</svg>
