<svg width="18" height="22" viewBox="0 0 18 22" fill="none" xmlns="http://www.w3.org/2000/svg">
<path d="M2.8125 2.8125C6.22958 -0.60458 11.7703 -0.604571 15.1875 2.8125C18.6046 6.22959 18.6046 11.7703 15.1875 15.1875L9 21.374L2.8125 15.1875C-0.604571 11.7703 -0.60458 6.22958 2.8125 2.8125ZM14.127 3.87305C11.2957 1.04174 6.70435 1.04175 3.87305 3.87305C1.04175 6.70435 1.04174 11.2957 3.87305 14.127L8.82324 19.0762L9 19.2529L9.17676 19.0762L14.127 14.127C16.9583 11.2957 16.9583 6.70435 14.127 3.87305ZM9 5.25C11.071 5.25 12.75 6.92893 12.75 9C12.75 11.071 11.071 12.75 9 12.75C6.92893 12.75 5.25 11.071 5.25 9C5.25 6.92893 6.92893 5.25 9 5.25ZM9 6.75C7.75733 6.75 6.75 7.75736 6.75 9C6.75 10.2427 7.75733 11.25 9 11.25C10.2427 11.25 11.25 10.2427 11.25 9C11.25 7.75736 10.2427 6.75 9 6.75Z" fill="#FFF2F2" stroke="#0B3D55" stroke-width="0.5"/>
</svg>
