<svg width="422" height="267" viewBox="0 0 422 267" fill="none" xmlns="http://www.w3.org/2000/svg">
<path d="M0 37.7112H98.5063L184.811 184.193L135.111 267L0 37.7112Z" fill="#0F4C82"/>
<path fill-rule="evenodd" clip-rule="evenodd" d="M245.522 170.143L323.791 38.0101H422L287.781 267L203.56 127.394C190.904 109.543 184.422 99.4491 173.502 81.3568C162.928 65.4257 160.325 55.8863 162.788 37.7112C168.205 21.0094 173.683 14.6019 186.299 6.62118C196.843 1.10103 203.314 -0.280266 215.762 0.044444C230.104 2.42702 236.525 5.31193 245.224 13.1979C254.791 23.9982 258.324 30.3756 260.402 42.4943C260.594 56.0723 259.059 63.5653 251.474 76.5737C239.823 96.7903 232.289 107.761 219.035 127.394L245.522 170.143ZM230.344 63.4202L211.595 92.7166C204.261 82.5075 200.021 76.8071 193.739 66.4097C188.02 54.7429 187.575 50.8174 187.489 46.3802C188.349 37.7947 190.042 33.5333 198.501 27.5471C207.232 23.7651 213.044 24.0635 220.523 26.3514C227.985 30.2094 231.011 33.1458 233.915 40.1027C235.685 49.5982 234.894 54.6838 230.344 63.4202Z" fill="#0F4C82"/>
</svg>
