<svg width="20" height="18" viewBox="0 0 20 18" fill="none" xmlns="http://www.w3.org/2000/svg">
<path d="M1 0.25H19C19.4142 0.25 19.75 0.585788 19.75 1V17C19.75 17.4142 19.4142 17.75 19 17.75H1C0.585788 17.75 0.25 17.4142 0.25 17V1C0.25 0.585791 0.585791 0.25 1 0.25ZM1.75 16.25H18.25V3.67871L17.833 4.05176L10.0703 11.0029L2.16504 4.02832L1.75 3.66211V16.25ZM2.3457 2.1875L9.89648 8.84961L10.0635 8.99609L10.2285 8.84863L17.668 2.18652L18.1553 1.75H1.85059L2.3457 2.1875Z" fill="white" stroke="#0B3D55" stroke-width="0.5"/>
</svg>
