<svg width="72" height="72" viewBox="0 0 73 72" fill="none" xmlns="http://www.w3.org/2000/svg">
<g filter="url(#filter0_d_267_113)">
<path d="M16.5125 49.075C19.275 46.9625 22.3625 45.2974 25.775 44.0797C29.1875 42.8621 32.7625 42.2522 36.5 42.25C40.2375 42.2478 43.8125 42.8577 47.225 44.0797C50.6375 45.3017 53.725 46.9668 56.4875 49.075C58.3833 46.8542 59.8599 44.3354 60.9173 41.5187C61.9746 38.7021 62.5022 35.6958 62.5 32.5C62.5 25.2958 59.9683 19.1609 54.9048 14.0952C49.8413 9.02958 43.7063 6.49783 36.5 6.5C29.2937 6.50217 23.1588 9.035 18.0953 14.0985C13.0318 19.162 10.5 25.2958 10.5 32.5C10.5 35.6958 11.0287 38.7021 12.086 41.5187C13.1433 44.3354 14.6188 46.8542 16.5125 49.075ZM36.5 35.75C33.3042 35.75 30.6088 34.6537 28.414 32.461C26.2192 30.2683 25.1228 27.573 25.125 24.375C25.1272 21.177 26.2246 18.4817 28.4173 16.289C30.6099 14.0963 33.3042 13 36.5 13C39.6958 13 42.3912 14.0974 44.586 16.2922C46.7808 18.4871 47.8772 21.1813 47.875 24.375C47.8728 27.5687 46.7765 30.264 44.586 32.461C42.3955 34.658 39.7002 35.7543 36.5 35.75ZM36.5 65C32.0042 65 27.7792 64.1463 23.825 62.439C19.8708 60.7317 16.4313 58.4166 13.5063 55.4937C10.5813 52.5709 8.26617 49.1313 6.561 45.175C4.85584 41.2187 4.00217 36.9937 4 32.5C3.99784 28.0063 4.8515 23.7813 6.561 19.825C8.2705 15.8687 10.5856 12.4291 13.5063 9.50625C16.4269 6.58342 19.8665 4.26833 23.825 2.561C27.7835 0.853667 32.0085 0 36.5 0C40.9915 0 45.2165 0.853667 49.175 2.561C53.1335 4.26833 56.5731 6.58342 59.4938 9.50625C62.4144 12.4291 64.7306 15.8687 66.4422 19.825C68.1539 23.7813 69.0065 28.0063 69 32.5C68.9935 36.9937 68.1398 41.2187 66.439 45.175C64.7382 49.1313 62.4231 52.5709 59.4938 55.4937C56.5644 58.4166 53.1248 60.7327 49.175 62.4422C45.2252 64.1517 41.0002 65.0043 36.5 65Z" fill="#494949"/>
</g>
<defs>
<filter id="filter0_d_267_113" x="0" y="0" width="73" height="73" filterUnits="userSpaceOnUse" color-interpolation-filters="sRGB">
<feFlood flood-opacity="0" result="BackgroundImageFix"/>
<feColorMatrix in="SourceAlpha" type="matrix" values="0 0 0 0 0 0 0 0 0 0 0 0 0 0 0 0 0 0 127 0" result="hardAlpha"/>
<feOffset dy="4"/>
<feGaussianBlur stdDeviation="2"/>
<feComposite in2="hardAlpha" operator="out"/>
<feColorMatrix type="matrix" values="0 0 0 0 0 0 0 0 0 0 0 0 0 0 0 0 0 0 0.25 0"/>
<feBlend mode="normal" in2="BackgroundImageFix" result="effect1_dropShadow_267_113"/>
<feBlend mode="normal" in="SourceGraphic" in2="effect1_dropShadow_267_113" result="shape"/>
</filter>
</defs>
</svg>
