<svg width="24" height="22" viewBox="0 0 24 22" fill="none" xmlns="http://www.w3.org/2000/svg">
<path d="M17.4 0C21.0451 0 24 2.97297 24 7.13514C24 15.4595 15 20.2162 12 22C9 20.2162 0 15.4595 0 7.13514C0 2.97297 3 0 6.6 0C8.83196 0 10.8 1.18919 12 2.37838C13.2 1.18919 15.168 0 17.4 0ZM13.1207 18.5559C14.1786 17.8955 15.132 17.2379 16.0259 16.5332C19.6004 13.7149 21.6 10.6355 21.6 7.13514C21.6 4.32955 19.7556 2.37838 17.4 2.37838C16.1089 2.37838 14.7112 3.05516 13.697 4.06014L12 5.74192L10.303 4.06014C9.28882 3.05516 7.89108 2.37838 6.6 2.37838C4.27087 2.37838 2.4 4.34827 2.4 7.13514C2.4 10.6355 4.39952 13.7149 7.97417 16.5332C8.868 17.2379 9.8214 17.8955 10.8793 18.5559C11.2375 18.7796 11.5933 18.9948 12 19.2354C12.4067 18.9948 12.7625 18.7796 13.1207 18.5559Z" fill="black"/>
</svg>
