<svg width="26" height="41" viewBox="0 0 26 41" fill="none" xmlns="http://www.w3.org/2000/svg">
<path d="M12.8172 0C10.2935 0.00316434 7.82678 0.750363 5.72551 2.14814C3.62424 3.54591 1.98173 5.53221 1.00344 7.8586C0.0251452 10.185 -0.24551 12.7482 0.225326 15.2276C0.696162 17.707 1.88759 19.9925 3.65058 21.7983V38.5C3.65153 38.8125 3.73235 39.1196 3.88536 39.3921C4.03838 39.6646 4.25852 39.8935 4.52487 40.0569C4.79121 40.2204 5.09493 40.3131 5.40718 40.3262C5.71942 40.3393 6.02983 40.2723 6.30892 40.1317L12.8172 36.8867L19.3256 40.1317C19.581 40.2625 19.8636 40.3316 20.1506 40.3333C20.4938 40.3344 20.8305 40.2392 21.1222 40.0583C21.3865 39.8932 21.6042 39.6635 21.755 39.3908C21.9058 39.1181 21.9845 38.8116 21.9839 38.5V21.7983C23.7469 19.9925 24.9383 17.707 25.4092 15.2276C25.88 12.7482 25.6094 10.185 24.6311 7.8586C23.6528 5.53221 22.0103 3.54591 19.909 2.14814C17.8077 0.750363 15.341 0.00316434 12.8172 0ZM18.3172 35.53L13.6422 33.2017C13.3864 33.0727 13.1038 33.0056 12.8172 33.0056C12.5307 33.0056 12.2481 33.0727 11.9922 33.2017L7.31725 35.53V24.42C8.4776 24.9679 9.71357 25.3387 10.9839 25.52V27.5C10.9839 27.9862 11.1771 28.4525 11.5209 28.7964C11.8647 29.1402 12.331 29.3333 12.8172 29.3333C13.3035 29.3333 13.7698 29.1402 14.1136 28.7964C14.4574 28.4525 14.6506 27.9862 14.6506 27.5V25.52C15.9209 25.3387 17.1569 24.9679 18.3172 24.42V35.53ZM12.8172 22C11.0043 22 9.23197 21.4624 7.72452 20.4551C6.21707 19.4479 5.04216 18.0163 4.34835 16.3413C3.65455 14.6663 3.47302 12.8232 3.82672 11.045C4.18041 9.26685 5.05345 7.6335 6.33544 6.35152C7.61742 5.06954 9.25076 4.1965 11.0289 3.8428C12.8071 3.4891 14.6502 3.67063 16.3252 4.36444C18.0002 5.05824 19.4318 6.23316 20.4391 7.74061C21.4463 9.24806 21.9839 11.0203 21.9839 12.8333C21.9839 15.2645 21.0181 17.5961 19.2991 19.3151C17.58 21.0342 15.2484 22 12.8172 22Z" fill="black"/>
</svg>
