<svg width="22" height="24" viewBox="0 0 22 24" fill="none" xmlns="http://www.w3.org/2000/svg">
<path d="M11.5789 15.1451V17.533C10.8546 17.2803 10.0752 17.1429 9.26316 17.1429C5.42623 17.1429 2.31579 20.2129 2.31579 24H0C0 18.9505 4.14725 14.8571 9.26316 14.8571C10.0628 14.8571 10.8388 14.9571 11.5789 15.1451ZM9.26316 13.7143C5.42474 13.7143 2.31579 10.6457 2.31579 6.85714C2.31579 3.06857 5.42474 0 9.26316 0C13.1016 0 16.2105 3.06857 16.2105 6.85714C16.2105 10.6457 13.1016 13.7143 9.26316 13.7143ZM9.26316 11.4286C11.8221 11.4286 13.8947 9.38286 13.8947 6.85714C13.8947 4.33143 11.8221 2.28571 9.26316 2.28571C6.70421 2.28571 4.63158 4.33143 4.63158 6.85714C4.63158 9.38286 6.70421 11.4286 9.26316 11.4286ZM16.2105 18.2857V14.8571H18.5263V18.2857H22V20.5714H18.5263V24H16.2105V20.5714H12.7368V18.2857H16.2105Z" fill="black"/>
</svg>
