<svg width="78" height="78" viewBox="0 0 78 78" fill="none" xmlns="http://www.w3.org/2000/svg">
<g clip-path="url(#clip0_267_112)">
<rect width="78" height="78" fill="white"/>
<g filter="url(#filter0_d_267_112)">
<path d="M19.0125 55.575C21.775 53.4625 24.8625 51.7974 28.275 50.5797C31.6875 49.3621 35.2625 48.7522 39 48.75C42.7375 48.7478 46.3125 49.3577 49.725 50.5797C53.1375 51.8017 56.225 53.4668 58.9875 55.575C60.8833 53.3542 62.3599 50.8354 63.4173 48.0187C64.4746 45.2021 65.0022 42.1958 65 39C65 31.7958 62.4683 25.6609 57.4048 20.5952C52.3413 15.5296 46.2063 12.9978 39 13C31.7937 13.0022 25.6588 15.535 20.5953 20.5985C15.5318 25.662 13 31.7958 13 39C13 42.1958 13.5287 45.2021 14.586 48.0187C15.6433 50.8354 17.1188 53.3542 19.0125 55.575ZM39 42.25C35.8042 42.25 33.1088 41.1537 30.914 38.961C28.7192 36.7683 27.6228 34.073 27.625 30.875C27.6272 27.677 28.7246 24.9817 30.9173 22.789C33.1099 20.5963 35.8042 19.5 39 19.5C42.1958 19.5 44.8912 20.5974 47.086 22.7922C49.2808 24.9871 50.3772 27.6813 50.375 30.875C50.3728 34.0687 49.2765 36.764 47.086 38.961C44.8955 41.158 42.2002 42.2543 39 42.25ZM39 71.5C34.5042 71.5 30.2792 70.6463 26.325 68.939C22.3708 67.2317 18.9313 64.9166 16.0063 61.9937C13.0813 59.0709 10.7662 55.6313 9.061 51.675C7.35584 47.7187 6.50217 43.4937 6.5 39C6.49784 34.5063 7.3515 30.2813 9.061 26.325C10.7705 22.3687 13.0856 18.9291 16.0063 16.0063C18.9269 13.0834 22.3665 10.7683 26.325 9.061C30.2835 7.35367 34.5085 6.5 39 6.5C43.4915 6.5 47.7165 7.35367 51.675 9.061C55.6335 10.7683 59.0731 13.0834 61.9938 16.0063C64.9144 18.9291 67.2306 22.3687 68.9422 26.325C70.6539 30.2813 71.5065 34.5063 71.5 39C71.4935 43.4937 70.6398 47.7187 68.939 51.675C67.2382 55.6313 64.9231 59.0709 61.9938 61.9937C59.0644 64.9166 55.6248 67.2327 51.675 68.9422C47.7252 70.6517 43.5002 71.5043 39 71.5Z" fill="#494949"/>
</g>
</g>
<defs>
<filter id="filter0_d_267_112" x="2.5" y="6.5" width="73" height="73" filterUnits="userSpaceOnUse" color-interpolation-filters="sRGB">
<feFlood flood-opacity="0" result="BackgroundImageFix"/>
<feColorMatrix in="SourceAlpha" type="matrix" values="0 0 0 0 0 0 0 0 0 0 0 0 0 0 0 0 0 0 127 0" result="hardAlpha"/>
<feOffset dy="4"/>
<feGaussianBlur stdDeviation="2"/>
<feComposite in2="hardAlpha" operator="out"/>
<feColorMatrix type="matrix" values="0 0 0 0 0 0 0 0 0 0 0 0 0 0 0 0 0 0 0.25 0"/>
<feBlend mode="normal" in2="BackgroundImageFix" result="effect1_dropShadow_267_112"/>
<feBlend mode="normal" in="SourceGraphic" in2="effect1_dropShadow_267_112" result="shape"/>
</filter>
<clipPath id="clip0_267_112">
<rect width="78" height="78" fill="white"/>
</clipPath>
</defs>
</svg>
