<svg width="22" height="22" viewBox="0 0 22 22" fill="none" xmlns="http://www.w3.org/2000/svg">
<path d="M3.33883 4.54102L0.21202 1.41422L1.62624 0L21.4253 19.7989L20.0111 21.2132L16.7011 17.9032C14.9998 18.9819 12.9822 19.6066 10.8187 19.6066C5.42648 19.6066 0.94051 15.7269 0 10.6067C0.43668 8.22927 1.63768 6.11935 3.33883 4.54102ZM13.5761 14.7783L12.1121 13.3142C11.7204 13.5016 11.2818 13.6067 10.8187 13.6067C9.16176 13.6067 7.81862 12.2635 7.81862 10.6067C7.81862 10.1435 7.92358 9.70485 8.11099 9.31315L6.64702 7.84922C6.1235 8.63965 5.81862 9.58755 5.81862 10.6067C5.81862 13.3681 8.0572 15.6067 10.8187 15.6067C11.8377 15.6067 12.7856 15.3018 13.5761 14.7783ZM6.79282 2.3666C8.03963 1.87604 9.39766 1.60661 10.8187 1.60661C16.2108 1.60661 20.6968 5.48637 21.6373 10.6067C21.3251 12.3063 20.6222 13.8693 19.6252 15.199L15.7654 11.3392C15.8005 11.1 15.8187 10.8555 15.8187 10.6067C15.8187 7.84518 13.5801 5.60661 10.8187 5.60661C10.5698 5.60661 10.3252 5.62478 10.0861 5.65988L6.79282 2.3666Z" fill="black"/>
</svg>
