<svg width="22" height="22" viewBox="0 0 22 22" fill="none" xmlns="http://www.w3.org/2000/svg">
<path d="M10 4.07089C6.93431 4.5094 4.5094 6.93431 4.07089 10H6V12H4.07089C4.5094 15.0657 6.93431 17.4906 10 17.9291V16H12V17.9291C15.0657 17.4906 17.4906 15.0657 17.9291 12H16V10H17.9291C17.4906 6.93431 15.0657 4.5094 12 4.07089V6H10V4.07089ZM2.05493 10C2.51608 5.82838 5.82838 2.51608 10 2.05493V0H12V2.05493C16.1716 2.51608 19.4839 5.82838 19.9451 10H22V12H19.9451C19.4839 16.1716 16.1716 19.4839 12 19.9451V22H10V19.9451C5.82838 19.4839 2.51608 16.1716 2.05493 12H0V10H2.05493ZM13 11C13 12.1046 12.1046 13 11 13C9.8954 13 9 12.1046 9 11C9 9.8954 9.8954 9 11 9C12.1046 9 13 9.8954 13 11Z" fill="black"/>
</svg>
