<svg width="37" height="37" viewBox="0 0 37 37" fill="none" xmlns="http://www.w3.org/2000/svg">
<path d="M16.5 23.8333H20.1667V27.5H16.5V23.8333ZM16.5 9.16667H20.1667V20.1667H16.5V9.16667ZM18.315 0C8.195 0 0 8.21333 0 18.3333C0 28.4533 8.195 36.6667 18.315 36.6667C28.4533 36.6667 36.6667 28.4533 36.6667 18.3333C36.6667 8.21333 28.4533 0 18.315 0ZM18.3333 33C10.23 33 3.66667 26.4367 3.66667 18.3333C3.66667 10.23 10.23 3.66667 18.3333 3.66667C26.4367 3.66667 33 10.23 33 18.3333C33 26.4367 26.4367 33 18.3333 33Z" fill="black"/>
</svg>
