<svg xmlns="http://www.w3.org/2000/svg" version="1.1" xmlns:xlink="http://www.w3.org/1999/xlink" width="1000" height="1000"><style>
    #light-icon {
      display: inline;
    }
    #dark-icon {
      display: none;
    }

    @media (prefers-color-scheme: dark) {
      #light-icon {
        display: none;
      }
      #dark-icon {
        display: inline;
      }
    }
  </style><g id="light-icon"><svg xmlns="http://www.w3.org/2000/svg" version="1.1" xmlns:xlink="http://www.w3.org/1999/xlink" width="1000" height="1000"><g><g transform="matrix(12.195121951219512,0,0,12.195121951219512,0,164.6341463414634)"><svg xmlns="http://www.w3.org/2000/svg" version="1.1" xmlns:xlink="http://www.w3.org/1999/xlink" width="82" height="55"><svg width="82" height="55" viewBox="0 0 82 55" fill="none" xmlns="http://www.w3.org/2000/svg">
<path d="M39.0907 25.722L31.9392 14.2801C30.6765 10.5052 30.6759 8.56309 31.9392 5.41048C33.6855 2.02518 35.225 0.807364 39.0907 0C43.6444 0.347328 45.9136 1.22348 48.8674 5.41048C50.0862 8.87407 50.1579 10.8167 48.8674 14.2801L41.7159 25.722H39.0907Z" fill="#0F4C82"></path>
<path d="M36.4096 12.1315L39.7049 17.5208H40.9146L44.2099 12.1315C44.8045 10.5002 44.7715 9.58521 44.2099 7.95381C42.8488 5.98167 41.8032 5.56899 39.7049 5.4054C37.9237 5.78568 37.2143 6.35929 36.4096 7.95381C35.8275 9.43873 35.8278 10.3535 36.4096 12.1315Z" fill="white" stroke="#FFFDFD"></path>
<path d="M39.2936 25.9085L55.9888 54.3331L82 8.7605H60.6007L46.5804 33.5505L41.6918 25.9085H39.2936Z" fill="#0F4C82"></path>
<path d="M0 8.7605H20.3847L36.1575 36.9987L25.4578 54.3331L0 8.7605Z" fill="#0F4C82"></path>
</svg></svg></g></g></svg></g><g id="dark-icon"><svg xmlns="http://www.w3.org/2000/svg" version="1.1" xmlns:xlink="http://www.w3.org/1999/xlink" width="1000" height="1000"><g clip-path="url(#SvgjsClipPath1005)"><rect width="1000" height="1000" fill="#ffffff"></rect><g transform="matrix(8.536585365853659,0,0,8.536585365853659,150,265.2439024390244)"><svg xmlns="http://www.w3.org/2000/svg" version="1.1" xmlns:xlink="http://www.w3.org/1999/xlink" width="82" height="55"><svg width="82" height="55" viewBox="0 0 82 55" fill="none" xmlns="http://www.w3.org/2000/svg">
<path d="M39.0907 25.722L31.9392 14.2801C30.6765 10.5052 30.6759 8.56309 31.9392 5.41048C33.6855 2.02518 35.225 0.807364 39.0907 0C43.6444 0.347328 45.9136 1.22348 48.8674 5.41048C50.0862 8.87407 50.1579 10.8167 48.8674 14.2801L41.7159 25.722H39.0907Z" fill="#0F4C82"></path>
<path d="M36.4096 12.1315L39.7049 17.5208H40.9146L44.2099 12.1315C44.8045 10.5002 44.7715 9.58521 44.2099 7.95381C42.8488 5.98167 41.8032 5.56899 39.7049 5.4054C37.9237 5.78568 37.2143 6.35929 36.4096 7.95381C35.8275 9.43873 35.8278 10.3535 36.4096 12.1315Z" fill="white" stroke="#FFFDFD"></path>
<path d="M39.2936 25.9085L55.9888 54.3331L82 8.7605H60.6007L46.5804 33.5505L41.6918 25.9085H39.2936Z" fill="#0F4C82"></path>
<path d="M0 8.7605H20.3847L36.1575 36.9987L25.4578 54.3331L0 8.7605Z" fill="#0F4C82"></path>
</svg></svg></g></g><defs><clipPath id="SvgjsClipPath1005"><rect width="1000" height="1000" x="0" y="0" rx="350" ry="350"></rect></clipPath></defs></svg></g></svg>